<?xml version="1.0" encoding="iso-8859-1"?>
<!-- Generator: Adobe Illustrator 19.0.0, SVG Export Plug-In . SVG Version: 6.00 Build 0)  -->
<svg version="1.1" id="Capa_1" xmlns="http://www.w3.org/2000/svg" xmlns:xlink="http://www.w3.org/1999/xlink" x="0px" y="0px"
	 viewBox="0 0 512.005 512.005" style="enable-background:new 0 0 512.005 512.005;" xml:space="preserve">
<g>
	<g>
		<path d="M511.147,155.807l-64-149.333c-2.083-4.813-7.333-7.438-12.396-6.146L264.084,42.994
			c-4.396,1.094-7.625,4.854-8.042,9.375c-0.417,4.521,2.083,8.802,6.208,10.677l107.626,48.922l-16.986,37.37H173.669
			l-18.585-74.344c-4.771-19.031-21.792-32.323-41.396-32.323H10.668c-5.896,0-10.667,4.771-10.667,10.667
			c0,5.896,4.771,10.667,10.667,10.667h103.021c9.813,0,18.312,6.646,20.687,16.156l17.293,69.177h-37.126
			c-3.958,0-7.583,2.188-9.438,5.677c-12.938,24.479-19.771,52.021-19.771,79.656c0,90.504,70.868,164.576,160,170.126v85.874h-64
			c-5.896,0-10.667,4.771-10.667,10.667s4.771,10.667,10.667,10.667h149.333c5.896,0,10.667-4.771,10.667-10.667
			s-4.771-10.667-10.667-10.667h-64v-85.874c89.132-5.551,160-79.622,160-170.126c0-27.635-6.833-55.177-19.771-79.656
			c-1.854-3.49-5.479-5.677-9.438-5.677h-21.137l12.975-28.543l107.62,48.918c1.417,0.646,2.917,0.958,4.417,0.958
			c2.729,0,5.417-1.052,7.458-3.042C511.938,164.546,512.876,159.849,511.147,155.807z M343.194,170.671L323.8,213.338H189.668
			l-10.665-42.667H343.194z M121.126,170.671h35.876l10.665,42.667h-59.302C110.479,198.593,114.619,184.291,121.126,170.671z
			 M405.334,234.671c0,82.344-67,149.333-149.333,149.333s-149.333-66.99-149.333-149.333H405.334z M390.876,170.671
			c6.507,13.62,10.647,27.922,12.76,42.667h-56.405l19.395-42.667H390.876z M298.897,56.276l132.208-33.052l49.583,115.677
			L298.897,56.276z"/>
	</g>
</g>
<g>
</g>
<g>
</g>
<g>
</g>
<g>
</g>
<g>
</g>
<g>
</g>
<g>
</g>
<g>
</g>
<g>
</g>
<g>
</g>
<g>
</g>
<g>
</g>
<g>
</g>
<g>
</g>
<g>
</g>
</svg>
