<svg height="512pt" viewBox="0 -54 512.00003 512" width="512pt" xmlns="http://www.w3.org/2000/svg"><path d="m512 155.574219c0-26.03125-13.507812-49.273438-35.632812-61.972657-11.738282-26.003906-37.078126-48.445312-73.683594-65.171874-37.007813-16.90625-82.671875-26.734376-132.050782-28.4218755l-28.753906-.0078125-.511718.0078125c-49.382813 1.6874995-95.042969 11.5156255-132.050782 28.4218755-36.589844 16.714843-61.917968 39.144531-73.679687 65.167968-22.125 12.699219-35.636719 35.945313-35.636719 61.976563 0 31.949219 21.066406 59.0625 50.035156 68.199219l14.464844 131.800781c3.140625 28.644531 26.859375 47.890625 59.015625 47.890625h264.96875c32.15625 0 55.871094-19.246094 59.015625-47.890625l14.464844-131.800781c28.96875-9.136719 50.035156-36.25 50.035156-68.199219zm-417.65625 196.722656-13.484375-122.894531c16.09375 16.207031 38.90625 25.90625 62.179687 25.90625 4.148438 0 8.25-.304688 12.277344-.878906v119.011718h-31.800781c-24.914063-.003906-28.625-16.183594-29.171875-21.144531zm105.175781-118.261719c15.488281 13.671875 35.34375 21.273438 56.480469 21.273438 21.140625 0 40.996094-7.601563 56.480469-21.277344 4.574219 4.039062 9.539062 7.535156 14.796875 10.472656v128.933594h-141.933594v-129.28125c5.027344-2.871094 9.785156-6.242188 14.175781-10.121094zm188.964844 139.402344h-31.179687v-118.914062c3.828124.519531 7.71875.785156 11.65625.785156 23.667968 0 46.089843-9.46875 62.171874-25.8125l-13.476562 122.804687c-.546875 4.957031-4.257812 21.136719-29.171875 21.136719zm52.019531-176.394531c-3.148437 0-6.289062-.359375-9.355468-1.070313-6.089844-1.398437-12.371094.972656-16.015626 6.054688-10.273437 14.34375-27.964843 23.253906-46.171874 23.253906-17.449219 0-33.5625-7.996094-44.234376-21.964844-2.90625-3.785156-7.480468-6.039062-12.246093-6.039062-.007813 0-.015625 0-.019531 0-4.773438.003906-9.351563 2.273437-12.242188 6.066406-10.652344 13.945312-26.769531 21.941406-44.21875 21.941406s-33.5625-7.996094-44.210938-21.9375c-2.898437-3.792968-7.476562-6.066406-12.25-6.070312-.003906 0-.011718 0-.019531 0-4.765625 0-9.339843 2.257812-12.265625 6.066406-10.652344 13.945312-26.765625 21.941406-44.214844 21.941406-18.175781 0-35.863281-8.917968-46.160156-23.261718-3.640625-5.078126-9.929687-7.453126-16.019531-6.046876-3.066406.707032-6.214844 1.066407-9.363281 1.066407-22.867188 0-41.46875-18.601563-41.46875-41.46875 0-16.285157 9.0625-30.671875 23.636718-37.542969 3.691407-1.730469 6.5-4.792969 7.890626-8.570312 7.59375-20.363282 28.984374-39.441407 60.238281-53.71875 32.898437-15.03125 75.628906-24.160157 120.34375-25.714844h27.726562c44.714844 1.554687 87.445313 10.683594 120.34375 25.714844 31.253907 14.277343 52.644531 33.355468 60.21875 53.671874 1.410157 3.816407 4.210938 6.875 7.894531 8.613282 14.589844 6.875 23.652344 21.261718 23.652344 37.546875 0 22.867187-18.601562 41.46875-41.46875 41.46875zm0 0"/><path d="m185.0625 88.308594c-7.445312-3.648438-16.4375-.566406-20.085938 6.882812l-20.015624 40.882813c-3.648438 7.445312-.566407 16.4375 6.882812 20.082031 2.125 1.042969 4.371094 1.535156 6.589844 1.535156 5.550781 0 10.886718-3.09375 13.492187-8.414062l20.019531-40.886719c3.644532-7.445313.566407-16.4375-6.882812-20.082031zm0 0"/><path d="m256.3125 86.777344c-8.292969 0-15.015625 6.722656-15.015625 15.011718v40.886719c0 8.289063 6.722656 15.011719 15.015625 15.011719 8.289062 0 15.011719-6.722656 15.011719-15.011719v-40.886719c0-8.289062-6.722657-15.011718-15.011719-15.011718zm0 0"/><path d="m347.023438 95.191406c-3.648438-7.449218-12.644532-10.527344-20.085938-6.882812-7.445312 3.644531-10.527344 12.636718-6.882812 20.082031l20.019531 40.886719c2.605469 5.320312 7.941406 8.414062 13.492187 8.414062 2.21875 0 4.46875-.492187 6.589844-1.535156 7.449219-3.644531 10.53125-12.636719 6.882812-20.082031zm0 0"/></svg>