<svg height="581pt" viewBox="-140 0 581 581.32564" width="581pt" xmlns="http://www.w3.org/2000/svg"><path d="m287.515625 153.71875c4.675781 2.59375 10.570313.90625 13.164063-3.773438 1.246093-2.238281 1.546874-4.878906.847656-7.34375l-38.730469-135.566406c-1.464844-5.144531-6.820313-8.125-11.964844-6.664062-.003906 0-.003906.003906-.003906.003906l-135.566406 38.730469c-5.144531 1.46875-8.121094 6.824219-6.65625 11.96875.707031 2.472656 2.363281 4.5625 4.613281 5.8125l79.042969 43.910156-22.222657 44.457031h-28.449218c3.484375-5.859375 5.34375-12.546875 5.382812-19.367187.433594-20.957031-16.207031-38.300781-37.164062-38.730469-2.550782-.054688-5.101563.152344-7.609375.609375-17.339844-35.011719-59.78125-49.339844-94.796875-32-.105469.054687-.214844.109375-.324219.160156l8.65625 17.324219c25.132813-12.679688 55.785156-2.664062 68.578125 22.410156-15.257812 11.753906-19.304688 33.066406-9.421875 49.59375h-63.484375c-5.347656 0-9.683594 4.335938-9.683594 9.683594 0 1.039062.167969 2.074219.496094 3.0625 12.179688 36.660156 15.25 75.738281 8.9375 113.855469l-9.566406 57.382812c-9.160156 54.472657 24.351562 107.054688 77.601562 121.753907v71.910156h-19.367187c-26.726563.03125-48.382813 21.691406-48.414063 48.414062 0 5.351563 4.332032 9.683594 9.683594 9.683594h174.296875c5.347656 0 9.683594-4.332031 9.683594-9.683594-.03125-26.722656-21.691407-48.382812-48.414063-48.414062h-19.367187v-71.910156c53.246093-14.699219 86.761719-67.28125 77.601562-121.753907l-9.566406-57.375c-6.3125-38.113281-3.246094-77.191406 8.9375-113.855469 1.695313-5.070312-1.042969-10.558593-6.113281-12.253906-.992188-.332031-2.03125-.5-3.078125-.5h-13.382813l17.519532-35.042968zm-198.640625-27.832031c0-10.695313 8.667969-19.367188 19.367188-19.367188 10.695312 0 19.363281 8.671875 19.363281 19.367188 0 10.695312-8.667969 19.367187-19.363281 19.367187-10.695313 0-19.367188-8.671875-19.367188-19.367187zm95.175781 435.746093h-151.621093c4.121093-11.597656 15.085937-19.351562 27.394531-19.367187h96.832031c12.308594.015625 23.277344 7.769531 27.394531 19.367187zm-85.492187-38.730468v-68.257813c6.4375.648438 12.925781.648438 19.367187 0v68.257813zm77.40625-118.535156c-12.914063 15.226562-30.589844 25.644531-50.167969 29.5625h-.066406c-3.011719.589843-5.890625 1.039062-8.71875 1.347656-2.824219.308594-5.816407.472656-8.769531.472656-2.953126 0-5.878907-.191406-8.785157-.472656s-5.695312-.757813-8.714843-1.347656h-.066407c-46.917969-9.394532-77.898437-54.339844-69.992187-101.527344l9.566406-57.375c2.84375-17.273438 3.910156-34.792969 3.1875-52.289063h149.59375c-.722656 17.496094.34375 35.015625 3.1875 52.289063l9.566406 57.375c4.3125 25.738281-2.941406 52.066406-19.820312 71.964844zm8.5625-201.015626h-152.570313c-1.5-13.082031-4-26.03125-7.484375-38.730468h167.519532c-3.476563 12.699218-5.972657 25.648437-7.464844 38.730468zm62.308594-181.695312 29.652343 103.777344-133.386719-74.109375zm0 0"/></svg>