<?xml version="1.0" encoding="iso-8859-1"?>
<!-- Generator: Adobe Illustrator 21.0.0, SVG Export Plug-In . SVG Version: 6.00 Build 0)  -->
<svg version="1.1" id="Capa_1" xmlns="http://www.w3.org/2000/svg" xmlns:xlink="http://www.w3.org/1999/xlink" x="0px" y="0px"
	 viewBox="0 0 512 512" style="enable-background:new 0 0 512 512;" xml:space="preserve">
<g>
	<g>
		<path d="M476.876,0H221.64c-11.224,0-21.16,5.159-27.445,13.848c-22.427,5.722-36.99,14.965-43.275,27.536
			c-4.435,8.88-3.932,19.47-1.066,24.69c11.284,20.476,27.274,14.11,35.219,28.542c8.156,14.784-6.165,24.197,5.31,45.025
			c11.284,20.476,27.274,14.11,35.219,28.532c8.146,14.784-6.165,24.197,5.31,45.025c11.555,20.969,24.368,14.1,35.149,28.411
			c11.374,15.116,2.957,22.336,26.118,37.643c12.963,8.569,34.727,2.484,45.186,9.403c9.142,6.054,12.511,28.763,26.309,37.915
			c14.703,9.755,37.201,4.214,45.146,9.514c3.359,2.243,6.447,5.059,9.182,8.388c23.865,29.075,70.167,13.014,71.415-23.523
			c13.607-5.411,21.512-17.811,21.512-31.659V34.053C510.929,15.277,495.662,0,476.876,0z M429.659,334.897
			c-3.681-4.475-7.875-8.297-12.461-11.364c-12.963-8.649-34.747-2.605-45.186-9.534c-9.283-6.155-12.39-28.703-26.329-37.925
			c-14.643-9.695-37.291-4.194-45.186-9.413c-18.163-11.988-8.548-15.739-22.387-34.123c-13.848-18.394-25.685-11.565-33.982-26.621
			c-8.146-14.784,6.165-24.197-5.31-45.025c-11.284-20.476-27.274-14.11-35.219-28.532c-8.146-14.794,6.165-24.197-5.31-45.025
			c-11.344-20.597-26.902-13.959-34.998-28.139c-0.322-0.986-1.589-5.622,1.126-11.063c2.444-4.888,8.518-11.284,23.211-16.564
			c-0.784,9.705,2.655,19.289,9.926,26.56l33.972,33.972l13.285,69.826c1.167,6.125,4.928,11.445,10.318,14.593l75.508,44.11
			c9.192,47.921,54.72,81.26,103.788,74.371l18.374,18.374c5.954,5.954,13.446,9.343,21.301,9.946
			C471.254,343.687,444.151,352.547,429.659,334.897z M344.074,204.649l15.307,15.307l13.818,13.818l46.996,46.996
			c-32.102-0.624-59.487-20.818-70.7-49.118c-2.555-6.426-4.274-13.265-5.018-20.396
			C344.255,209.084,344.114,206.872,344.074,204.649z M495.843,289.289c0,16.886-20.416,25.374-32.373,13.416L346.105,185.34
			l-12.169-12.169l-21.462-21.462c-3.108-3.108-8.196-2.917-11.053,0.412c-1.227,1.418-1.83,3.178-1.83,4.928
			c0,1.931,0.744,3.862,2.213,5.33l28.039,28.039c-0.543,3.852-0.835,7.784-0.865,11.777l-66.245-38.699
			c-1.619-0.945-2.756-2.544-3.098-4.395l-9.142-48.032l30,30c3.108,3.108,8.196,2.917,11.053-0.412
			c1.227-1.418,1.83-3.178,1.83-4.928c0-1.931-0.744-3.862-2.213-5.33L245.485,84.72c-12.4-12.4-24.881-24.881-37.261-37.261
			c-6.607-6.607-6.457-15.005-4.113-20.667c1.961-4.737,6.376-9.745,13.245-11.244c3.681-0.835-12.29-0.292,259.52-0.463
			c10.459,0,18.967,8.508,18.967,18.967V289.289z"/>
	</g>
</g>
<g>
	<g>
		<path d="M469.853,207.167c-2.947-2.948-7.723-2.947-10.667-0.002l-30.046,30.045c-4.765,4.764-1.328,12.877,5.333,12.877
			c5.557,0,4.976-2.937,35.379-32.254C472.799,214.887,472.799,210.112,469.853,207.167z"/>
	</g>
</g>
<g>
	<g>
		<path d="M480.783,128.55c-2.947-2.946-7.722-2.946-10.667-0.001l-74.82,74.82c-4.767,4.768-1.326,12.877,5.334,12.877
			c5.95,0,2.261-0.326,80.153-77.028C483.729,136.271,483.729,131.496,480.783,128.55z"/>
	</g>
</g>
<g>
	<g>
		<path d="M472.862,68.786c-2.947-2.945-7.722-2.945-10.667,0L361.454,169.526c-4.767,4.768-1.326,12.877,5.334,12.877
			c5.958-0.001,1.184,0.737,106.074-102.95C475.808,76.506,475.808,71.731,472.862,68.786z"/>
	</g>
</g>
<g>
	<g>
		<path d="M439.021,34.944c-2.947-2.945-7.722-2.945-10.667,0L327.613,135.685c-2.946,2.947-2.946,7.722,0,10.667
			c1.473,1.472,3.404,2.208,5.334,2.208c5.957,0,1.183,0.737,106.074-102.949C441.966,42.665,441.966,37.89,439.021,34.944z"/>
	</g>
</g>
<g>
	<g>
		<path d="M379.257,27.023c-2.947-2.945-7.722-2.945-10.667,0l-74.82,74.82c-4.767,4.768-1.326,12.877,5.334,12.877
			c5.949-0.001,2.261-0.328,80.153-77.029C382.203,34.744,382.203,29.969,379.257,27.023z"/>
	</g>
</g>
<g>
	<g>
		<path d="M300.641,37.955c-2.947-2.945-7.722-2.945-10.667,0L259.928,68c-4.767,4.768-1.326,12.877,5.334,12.877
			c5.56,0,4.985-2.946,35.379-32.254C303.587,45.676,303.587,40.901,300.641,37.955z"/>
	</g>
</g>
<g>
	<g>
		<path d="M82.864,264.116c-2.947-2.945-7.722-2.945-10.667,0l-30.045,30.045c-4.767,4.768-1.326,12.877,5.334,12.877
			c5.56-0.001,4.984-2.947,35.378-32.255C85.81,271.837,85.81,267.062,82.864,264.116z"/>
	</g>
</g>
<g>
	<g>
		<path d="M184.391,365.643c-2.947-2.946-7.722-2.946-10.668-0.001L72.982,466.383c-4.767,4.768-1.326,12.877,5.334,12.877
			c5.958,0,1.184,0.737,106.075-102.949C187.337,373.364,187.337,368.589,184.391,365.643z"/>
	</g>
</g>
<g>
	<g>
		<path d="M218.232,399.485c-2.946-2.946-7.721-2.946-10.667-0.001l-74.82,74.82c-4.767,4.768-1.326,12.877,5.334,12.877
			c5.949,0,2.261-0.326,80.153-77.028C221.178,407.205,221.178,402.43,218.232,399.485z"/>
	</g>
</g>
<g>
	<g>
		<path d="M252.075,433.326c-2.947-2.945-7.722-2.945-10.667,0l-30.045,30.045c-4.767,4.767-1.326,12.876,5.333,12.876
			c5.56,0,4.985-2.946,35.379-32.254C255.02,441.047,255.02,436.272,252.075,433.326z"/>
	</g>
</g>
<g>
	<g>
		<path d="M96.426,496.922c-18.607-0.007-38.981-0.007-61.293-0.007c-10.475,0-18.977-8.492-18.977-18.967v-189.64
			c0-4.163-3.374-7.537-7.537-7.537H8.608c-4.163,0-7.537,3.374-7.537,7.537v189.64C1.071,496.754,16.317,512,35.124,512h61.292
			c4.163,0,7.537-3.374,7.537-7.537v-0.004C103.954,500.297,100.587,496.923,96.426,496.922z"/>
	</g>
</g>
<g>
	<g>
		<path d="M362.145,445.925c-11.283-20.485-27.263-14.119-35.218-28.541c-8.146-14.794,6.165-24.207-5.31-45.025
			c-11.284-20.486-27.274-14.12-35.219-28.542c-8.146-14.784,6.165-24.197-5.31-45.015c-11.555-20.979-24.358-14.11-35.139-28.421
			c-11.374-15.116-2.967-22.336-26.128-37.633c-12.963-8.569-34.727-2.494-45.176-9.413c-9.152-6.044-12.521-28.763-26.319-37.915
			c-14.703-9.755-37.191-4.204-45.146-9.514c-3.349-2.233-6.436-5.059-9.172-8.388c-23.755-28.934-70.177-13.175-71.414,23.523
			c-11.797,4.184-21.522,16.423-21.522,31.659v35.567c0,4.163,3.374,7.537,7.537,7.537h0.011c4.163,0,7.537-3.374,7.537-7.537
			v-35.567c0-16.926,20.456-25.333,32.373-13.416l255.246,255.246c10.922,10.922,4.737,28.884-9.132,31.931
			c-2.727,0.595,9.482,0.496-168.181,0.464c-4.164-0.001-7.545,3.374-7.545,7.537c0,4.163,3.374,7.537,7.537,7.537h163.914
			c18.776,0,27.355-13.768,27.466-13.858c22.407-5.722,36.969-14.975,43.245-27.536
			C365.504,461.754,365.032,451.185,362.145,445.925z M153.635,293.06c-0.02-0.02-0.04-0.04-0.07-0.07
			c-0.181-0.191-0.362-0.372-0.533-0.533l-0.171-0.171c-0.332-0.342-0.654-0.654-0.965-0.965c-0.111-0.111-0.231-0.231-0.352-0.352
			c-0.03-0.03-0.05-0.06-0.07-0.07c-0.101-0.101-0.201-0.201-0.302-0.302c-0.141-0.141-0.272-0.282-0.402-0.402
			c-0.121-0.121-0.251-0.251-0.382-0.382c-0.02-0.03-0.04-0.05-0.05-0.05c-0.151-0.151-0.302-0.302-0.453-0.453
			c-0.03-0.03-0.05-0.06-0.07-0.07c-0.141-0.141-0.272-0.272-0.412-0.412c-0.07-0.07-0.131-0.141-0.191-0.191
			c-0.101-0.101-0.221-0.221-0.332-0.332c-0.181-0.191-0.362-0.372-0.543-0.543c-0.111-0.111-0.221-0.221-0.342-0.342
			c-0.081-0.08-0.151-0.161-0.231-0.231l-0.382-0.382c-0.081-0.08-0.151-0.161-0.221-0.221c-0.131-0.131-0.261-0.261-0.392-0.392
			L146.575,286c-0.02-0.02-0.04-0.04-0.05-0.05c-0.111-0.111-0.221-0.221-0.332-0.332c-0.111-0.121-0.231-0.231-0.342-0.342
			c-0.101-0.101-0.201-0.201-0.302-0.302l-0.392-0.392c-0.06-0.07-0.131-0.131-0.191-0.191c-0.151-0.151-0.312-0.312-0.463-0.463
			c-0.03-0.03-0.06-0.06-0.091-0.091c-0.161-0.161-0.322-0.322-0.483-0.483c-0.02-0.02-0.04-0.04-0.06-0.06
			c-0.07-0.07-0.141-0.141-0.211-0.211c-0.161-0.161-0.322-0.322-0.493-0.493c-0.091-0.091-0.181-0.181-0.282-0.282
			c-0.06-0.06-0.111-0.111-0.161-0.161l-0.563-0.563c-0.05-0.05-0.091-0.101-0.141-0.141l-0.181-0.181
			c-0.04-0.04-0.08-0.08-0.131-0.131c-0.04-0.04-0.091-0.091-0.131-0.131l-0.392-0.392c-0.01-0.01-0.02-0.02-0.03-0.03
			c-9.454-9.454-24.941-24.941-49.35-49.35c20.848,0.412,39.695,9.071,53.413,22.819c13.728,13.748,22.326,32.564,22.709,53.292
			C162.073,301.488,157.376,296.791,153.635,293.06z M182.167,321.581c0.533-3.862,0.825-7.794,0.855-11.787
			c68.498,40.952,68.347,37.854,69.353,43.094l9.142,48.042C253.129,392.543,190.484,329.899,182.167,321.581z M347.584,463.857
			c-2.444,4.888-8.508,11.284-23.191,16.564c0.784-9.705-2.675-19.289-9.946-26.56l-33.972-33.972l-13.285-69.815
			c-1.167-6.135-4.918-11.455-10.308-14.603l-75.518-44.11c-9.182-47.911-54.72-81.25-103.788-74.361L59.2,198.625
			c-5.944-5.944-13.446-9.353-21.291-9.966c1.79-12.782,13.134-21.029,24.921-21.029c6.99,0,14.13,2.896,19.521,9.464
			c12.611,15.367,21.864,16.051,36.949,16.815c21.069,1.076,22.859,2.725,31.227,20.044c10.469,21.693,16.463,27.164,44.13,28.501
			c6.628,0.322,13.486,0.654,16.855,2.876c18.153,11.998,8.548,15.739,22.387,34.123c13.838,18.394,25.685,11.576,33.972,26.631
			c8.146,14.784-6.165,24.187,5.31,45.015c11.284,20.476,27.274,14.11,35.219,28.542c8.146,14.784-6.155,24.197,5.31,45.015
			c11.354,20.597,26.902,13.959,34.998,28.139C349.042,453.79,350.299,458.427,347.584,463.857z"/>
	</g>
</g>
<g>
	<g>
		<path d="M116.706,297.958c-2.947-2.947-7.724-2.947-10.67,0l-68.196,68.206c-4.654,5.362-9.09,7.109-8.81,12.34
			c0.206,4.609,4.561,7.925,9.001,7c3.651-0.699,4.414-3.081,11.998-10.198l66.678-66.678
			C119.653,305.681,119.653,300.904,116.706,297.958z"/>
	</g>
</g>
<g>
	<g>
		<path d="M150.548,331.799c-2.947-2.947-7.724-2.947-10.67,0c-9.431,9.431-88.486,88.486-100.741,100.741
			c-2.947,2.947-2.947,7.724,0,10.67c2.97,2.95,7.747,2.924,10.67,0c20.135-20.135,77.737-77.738,100.741-100.741
			C153.494,339.523,153.494,334.746,150.548,331.799z"/>
	</g>
</g>
<g>
</g>
<g>
</g>
<g>
</g>
<g>
</g>
<g>
</g>
<g>
</g>
<g>
</g>
<g>
</g>
<g>
</g>
<g>
</g>
<g>
</g>
<g>
</g>
<g>
</g>
<g>
</g>
<g>
</g>
</svg>
