<?xml version="1.0" encoding="iso-8859-1"?>
<!-- Generator: Adobe Illustrator 19.0.0, SVG Export Plug-In . SVG Version: 6.00 Build 0)  -->
<svg version="1.1" id="Capa_1" xmlns="http://www.w3.org/2000/svg" xmlns:xlink="http://www.w3.org/1999/xlink" x="0px" y="0px"
	 viewBox="0 0 330.99 330.99" style="enable-background:new 0 0 330.99 330.99;" xml:space="preserve">
<g>
	<g>
		<path d="M189.737,96.332V4.849c0-2.678-2.171-4.849-4.849-4.849h-38.788c-2.678,0-4.849,2.171-4.849,4.849v91.484
			c-17.774,9.074-29.091,27.384-29.091,47.506v182.303c0,2.678,2.171,4.848,4.848,4.848h96.97c2.678,0,4.848-2.171,4.848-4.848
			V143.838C218.828,123.716,207.511,105.405,189.737,96.332z M150.949,9.697h29.091v9.697h-29.091V9.697z M150.949,29.091h29.091
			v46.066h-29.091V29.091z M209.131,321.293h-87.273v-67.879h87.273V321.293z M209.131,243.717h-87.273v-75.636h87.273V243.717z
			 M209.131,158.384h-87.273v-14.545c0-17.345,10.277-33.045,26.184-39.996c1.766-0.772,2.907-2.516,2.907-4.443V84.854h29.091
			v14.545c0,1.927,1.141,3.671,2.907,4.443c15.906,6.951,26.184,22.651,26.184,39.996V158.384z"/>
	</g>
</g>
<g>
	<g>
		<path d="M310.949,321.293c-7.689,0-11.341-3.653-15.966-8.277c-4.218-4.218-9.327-9.299-17.974-10.72v-49.158
			c21.787-2.42,38.788-20.939,38.788-43.36c0-2.289-0.184-4.61-0.544-6.874l-9.209-59.803c-0.365-2.365-2.4-4.111-4.792-4.111
			h-58.182c-2.393,0-4.428,1.745-4.792,4.11l-9.205,59.78c-0.364,2.288-0.548,4.609-0.548,6.898c0,22.422,17.001,40.94,38.788,43.36
			v49.158c-8.647,1.42-13.756,6.502-17.974,10.72c-4.625,4.625-8.277,8.277-15.966,8.277c-2.678,0-4.849,2.171-4.849,4.849
			s2.171,4.848,4.849,4.848h77.576c2.678,0,4.849-2.171,4.849-4.848S313.627,321.293,310.949,321.293z M238.222,209.778
			c0-1.781,0.144-3.589,0.431-5.399l8.577-55.692h49.864l8.58,55.716c0.284,1.786,0.428,3.594,0.428,5.375
			c0,18.715-15.225,33.939-33.939,33.939C253.448,243.717,238.222,228.492,238.222,209.778z M254.767,321.293
			c0.489-0.48,0.965-0.955,1.429-1.42c4.625-4.624,8.277-8.277,15.966-8.277c7.689,0,11.341,3.653,15.966,8.277
			c0.465,0.465,0.94,0.941,1.429,1.42H254.767z"/>
	</g>
</g>
<g>
	<g>
		<path d="M287.831,177.778h-31.34c-2.678,0-4.848,2.171-4.848,4.849c0,2.678,2.171,4.848,4.848,4.848h31.34
			c2.678,0,4.849-2.171,4.849-4.848C292.68,179.949,290.509,177.778,287.831,177.778z"/>
	</g>
</g>
<g>
	<g>
		<path d="M74.498,177.778H43.159c-2.678,0-4.849,2.171-4.849,4.849c0,2.678,2.171,4.848,4.849,4.848h31.34
			c2.677,0,4.848-2.171,4.848-4.848C79.346,179.949,77.176,177.778,74.498,177.778z"/>
	</g>
</g>
<g>
	<g>
		<path d="M97.616,321.293c-7.689,0-11.341-3.653-15.966-8.277c-4.218-4.218-9.327-9.299-17.974-10.72v-49.158
			c21.787-2.421,38.788-20.939,38.788-43.361c0-2.289-0.184-4.61-0.544-6.875L92.711,143.1c-0.365-2.365-2.4-4.11-4.792-4.11H29.737
			c-2.393,0-4.428,1.745-4.792,4.11l-9.205,59.78c-0.364,2.288-0.548,4.609-0.548,6.898c0,22.422,17.001,40.94,38.788,43.36v49.158
			c-8.647,1.42-13.756,6.502-17.974,10.72c-4.625,4.625-8.277,8.277-15.966,8.277c-2.678,0-4.849,2.171-4.849,4.849
			s2.171,4.848,4.849,4.848h77.576c2.678,0,4.848-2.171,4.848-4.848S100.294,321.293,97.616,321.293z M24.889,209.778
			c0-1.781,0.144-3.589,0.431-5.399l8.577-55.692H83.76l8.58,55.716c0.284,1.786,0.428,3.594,0.428,5.375
			c0,18.715-15.225,33.939-33.939,33.939C40.114,243.717,24.889,228.492,24.889,209.778z M41.433,321.293
			c0.489-0.48,0.965-0.955,1.429-1.42c4.625-4.624,8.277-8.277,15.966-8.277c7.689,0,11.341,3.653,15.966,8.277
			c0.465,0.465,0.94,0.941,1.429,1.42H41.433z"/>
	</g>
</g>
<g>
</g>
<g>
</g>
<g>
</g>
<g>
</g>
<g>
</g>
<g>
</g>
<g>
</g>
<g>
</g>
<g>
</g>
<g>
</g>
<g>
</g>
<g>
</g>
<g>
</g>
<g>
</g>
<g>
</g>
</svg>
