<?xml version="1.0"?>
<svg xmlns="http://www.w3.org/2000/svg" viewBox="0 0 64 64" width="512" height="512"><path d="m37 27a3 3 0 0 1 3 3h4v-1a6 6 0 0 0 -6-6h-5v-2h-12v6a3 3 0 0 1 -6 0v-2a3 3 0 0 1 -6 0v-4h-4v36a2 2 0 0 0 0 4h28a2 2 0 0 0 0-4v-3h5.625a5.374 5.374 0 0 0 5.375-5.375v-2.625h-4v1a3 3 0 0 1 -3 3h-4v-23z" fill="#cfcfcf"/><path d="m5 21v35a1.041 1.041 0 0 0 1.077 1h25.846a1.041 1.041 0 0 0 1.077-1v-35z" fill="#f4c734"/><g fill="#f9f2cc"><circle cx="6" cy="9" r="3"/><circle cx="17" cy="5" r="2"/><circle cx="32" cy="6" r="3"/><path d="m9 24.83a3.114 3.114 0 0 0 2.839 3.17 3 3 0 0 0 3.161-3v1.83a3.114 3.114 0 0 0 2.839 3.17 3 3 0 0 0 3.161-3v-4a2 2 0 0 1 2-2h10a8 8 0 0 0 -13.036-6.213 5.983 5.983 0 0 0 -6.816.616 5.988 5.988 0 0 0 -8.148 5.597h2a2 2 0 0 1 2 2z"/></g><rect fill="#ccc" height="2" rx="1" width="26" x="6" y="57"/><path d="m61 30h-9a4 4 0 0 0 -4-4h-4.82a5.956 5.956 0 0 1 .82 3v1h-6a2 2 0 0 0 0 4 2 2 0 0 0 0 4 2 2 0 0 0 0 4 2 2 0 0 0 0 4h6v4h3.875a4.118 4.118 0 0 0 4.112-4h9.013z" fill="#f7ddad"/><path d="m61 29h-8.1a5.008 5.008 0 0 0 -4.9-4h-4.264a6.985 6.985 0 0 0 -5.736-3h-4v-1a9 9 0 0 0 -14.139-7.386 7.107 7.107 0 0 0 -6.9.671 6.917 6.917 0 0 0 -1.961-.285 7.008 7.008 0 0 0 -7 7v35.171a3 3 0 0 0 1 5.829h28a3 3 0 0 0 1-5.829v-1.171h4a7 7 0 0 0 6.315-4h3.685a5.008 5.008 0 0 0 4.9-4h8.1a1 1 0 0 0 1-1v-16a1 1 0 0 0 -1-1zm-16 15a1 1 0 0 1 -1 1h-6a1 1 0 0 1 0-2h6a1 1 0 0 1 1 1zm-13-20h-10v-2h10zm2 4h3a1.993 1.993 0 0 1 1.722 1h-.722a2.987 2.987 0 0 0 -2.22 5 2.954 2.954 0 0 0 0 4 2.954 2.954 0 0 0 0 4 2.987 2.987 0 0 0 2.22 5h1a2 2 0 0 1 -2 2h-3zm11 8a1 1 0 0 1 -1 1h-6a1 1 0 0 1 0-2h6a1 1 0 0 1 1 1zm0 4a1 1 0 0 1 -1 1h-6a1 1 0 0 1 0-2h6a1 1 0 0 1 1 1zm-7-7a1 1 0 0 1 0-2h6a1 1 0 0 1 0 2zm0-9a5 5 0 0 1 5 5h-2.142a4 4 0 0 0 -3.858-3h-3v-2zm-27-8a4.977 4.977 0 0 1 1.789.336 1 1 0 0 0 1-.167 5.086 5.086 0 0 1 5.679-.513 1 1 0 0 0 1.125-.093 6.923 6.923 0 0 1 4.407-1.563 7 7 0 0 1 6.92 6h-10.92a1 1 0 0 0 -1 1v6a2 2 0 0 1 -4 0v-2a1 1 0 0 0 -2 0 2 2 0 0 1 -4 0v-4a1 1 0 0 0 -1-1h-2.9a5.009 5.009 0 0 1 4.9-4zm-5 8v-2h2v2zm27 36h-28a1 1 0 0 1 0-2 1 1 0 0 0 1-1v-31h2.142a3.985 3.985 0 0 0 6.083 2.323 4 4 0 0 0 7.775-1.323v-1h10v31a1 1 0 0 0 1 1 1 1 0 0 1 0 2zm5-7h-4v-2h3a4 4 0 0 0 4-4h2v1a5.006 5.006 0 0 1 -5 5zm22-8h-8a1 1 0 0 0 -1 1 3 3 0 0 1 -3 3h-3.08a7.026 7.026 0 0 0 .08-1v-1.184a2.972 2.972 0 0 0 1.22-4.816 2.954 2.954 0 0 0 0-4 2.954 2.954 0 0 0 0-4 2.972 2.972 0 0 0 -1.22-4.816v-.184a6.993 6.993 0 0 0 -.292-2h3.292a3 3 0 0 1 3 3 1 1 0 0 0 1 1h8z"/><path d="m18 32h2v26h-2z"/><path d="m11 32h2v26h-2z"/><path d="m25 32h2v26h-2z"/><path d="m6 13a4 4 0 1 0 -4-4 4 4 0 0 0 4 4zm0-6a2 2 0 1 1 -2 2 2 2 0 0 1 2-2z"/><path d="m17 8a3 3 0 1 0 -3-3 3 3 0 0 0 3 3zm0-4a1 1 0 1 1 -1 1 1 1 0 0 1 1-1z"/><path d="m32 10a4 4 0 1 0 -4-4 4 4 0 0 0 4 4zm0-6a2 2 0 1 1 -2 2 2 2 0 0 1 2-2z"/></svg>
