<?xml version="1.0" encoding="iso-8859-1"?>
<!-- Generator: Adobe Illustrator 19.0.0, SVG Export Plug-In . SVG Version: 6.00 Build 0)  -->
<svg version="1.1" id="Capa_1" xmlns="http://www.w3.org/2000/svg" xmlns:xlink="http://www.w3.org/1999/xlink" x="0px" y="0px"
	 viewBox="0 0 511.559 511.559" style="enable-background:new 0 0 511.559 511.559;" xml:space="preserve">
<g>
	<g>
		<path d="M28.217,463.601h-0.086c-2.201,0-3.949,1.787-3.949,3.996c0,2.209,1.826,3.996,4.035,3.996
			c2.202,0,3.997-1.787,3.997-3.996C32.214,465.388,30.418,463.601,28.217,463.601z"/>
	</g>
</g>
<g>
	<g>
		<path d="M60.19,463.601h-0.086c-2.201,0-3.95,1.787-3.95,3.996c0,2.209,1.827,3.996,4.036,3.996c2.201,0,3.996-1.787,3.996-3.996
			C64.186,465.388,62.391,463.601,60.19,463.601z"/>
	</g>
</g>
<g>
	<g>
		<path d="M92.163,463.601h-0.086c-2.201,0-3.95,1.787-3.95,3.996c0,2.209,1.827,3.996,4.036,3.996c2.201,0,3.996-1.787,3.996-3.996
			C96.159,465.388,94.365,463.601,92.163,463.601z"/>
	</g>
</g>
<g>
	<g>
		<path d="M124.134,463.601h-0.085c-2.202,0-3.95,1.787-3.95,3.996c0,2.209,1.826,3.996,4.035,3.996
			c2.202,0,3.997-1.787,3.997-3.996C128.131,465.388,126.336,463.601,124.134,463.601z"/>
	</g>
</g>
<g>
	<g>
		<path d="M156.107,463.601h-0.086c-2.201,0-3.949,1.787-3.949,3.996c0,2.209,1.826,3.996,4.035,3.996
			c2.201,0,3.997-1.787,3.997-3.996C160.104,465.388,158.308,463.601,156.107,463.601z"/>
	</g>
</g>
<g>
	<g>
		<path d="M188.081,463.601h-0.086c-2.201,0-3.949,1.787-3.949,3.996c0,2.209,1.826,3.996,4.035,3.996
			c2.201,0,3.996-1.787,3.996-3.996C192.076,465.388,190.281,463.601,188.081,463.601z"/>
	</g>
</g>
<g>
	<g>
		<path d="M220.052,463.601h-0.086c-2.201,0-3.95,1.787-3.95,3.996c0,2.209,1.827,3.996,4.036,3.996
			c2.202,0,3.996-1.787,3.996-3.996C224.048,465.388,222.253,463.601,220.052,463.601z"/>
	</g>
</g>
<g>
	<g>
		<path d="M283.998,367.683h-0.086c-2.201,0-3.95,1.788-3.95,3.997c0,2.209,1.826,3.996,4.036,3.996
			c2.201,0,3.996-1.787,3.996-3.996C287.995,369.471,286.199,367.683,283.998,367.683z"/>
	</g>
</g>
<g>
	<g>
		<path d="M276.005,295.746h-0.086c-2.201,0-3.949,1.787-3.949,3.996c0,2.209,1.826,3.997,4.035,3.997
			c2.201,0,3.997-1.788,3.997-3.997C280.002,297.533,278.206,295.746,276.005,295.746z"/>
	</g>
</g>
<g>
	<g>
		<path d="M307.977,279.76h-0.086c-2.201,0-3.949,1.787-3.949,3.996c0,2.209,1.826,3.997,4.035,3.997
			c2.201,0,3.997-1.788,3.997-3.997C311.974,281.547,310.177,279.76,307.977,279.76z"/>
	</g>
</g>
<g>
	<g>
		<path d="M252.026,463.601h-0.086c-2.201,0-3.95,1.787-3.95,3.996c0,2.209,1.826,3.996,4.036,3.996
			c2.201,0,3.996-1.787,3.996-3.996C256.021,465.388,254.227,463.601,252.026,463.601z"/>
	</g>
</g>
<g>
	<g>
		<path d="M283.998,463.601h-0.086c-2.201,0-3.95,1.787-3.95,3.996c0,2.209,1.826,3.996,4.036,3.996
			c2.201,0,3.996-1.787,3.996-3.996C287.995,465.388,286.199,463.601,283.998,463.601z"/>
	</g>
</g>
<g>
	<g>
		<path d="M315.969,463.601h-0.086c-2.201,0-3.949,1.787-3.949,3.996c0,2.209,1.826,3.996,4.035,3.996
			c2.202,0,3.997-1.787,3.997-3.996C319.966,465.388,318.17,463.601,315.969,463.601z"/>
	</g>
</g>
<g>
	<g>
		<path d="M347.943,463.601h-0.086c-2.201,0-3.95,1.787-3.95,3.996c0,2.209,1.827,3.996,4.036,3.996
			c2.201,0,3.997-1.787,3.997-3.996C351.94,465.388,350.143,463.601,347.943,463.601z"/>
	</g>
</g>
<g>
	<g>
		<path d="M379.915,463.601h-0.086c-2.201,0-3.95,1.787-3.95,3.996c0,2.209,1.827,3.996,4.036,3.996
			c2.201,0,3.996-1.787,3.996-3.996C383.911,465.388,382.116,463.601,379.915,463.601z"/>
	</g>
</g>
<g>
	<g>
		<path d="M411.886,463.601H411.8c-2.201,0-3.949,1.787-3.949,3.996c0,2.209,1.826,3.996,4.035,3.996
			c2.202,0,3.997-1.787,3.997-3.996C415.883,465.388,414.087,463.601,411.886,463.601z"/>
	</g>
</g>
<g>
	<g>
		<path d="M443.859,463.601h-0.086c-2.201,0-3.949,1.787-3.949,3.996c0,2.209,1.826,3.996,4.035,3.996
			c2.201,0,3.997-1.787,3.997-3.996C447.857,465.388,446.06,463.601,443.859,463.601z"/>
	</g>
</g>
<g>
	<g>
		<path d="M475.833,463.601h-0.086c-2.201,0-3.949,1.787-3.949,3.996c0,2.209,1.826,3.996,4.035,3.996
			c2.201,0,3.996-1.787,3.996-3.996C479.828,465.388,478.034,463.601,475.833,463.601z"/>
	</g>
</g>
<g>
	<g>
		<path d="M44.204,471.594h-0.086c-2.201,0-3.949,1.788-3.949,3.997c0,2.209,1.826,3.997,4.035,3.997
			c2.201,0,3.996-1.788,3.996-3.997C48.201,473.382,46.405,471.594,44.204,471.594z"/>
	</g>
</g>
<g>
	<g>
		<path d="M12.232,471.594h-0.086c-2.201,0-3.949,1.788-3.949,3.997c0,2.209,1.826,3.997,4.035,3.997
			c2.201,0,3.997-1.788,3.997-3.997C16.228,473.382,14.432,471.594,12.232,471.594z"/>
	</g>
</g>
<g>
	<g>
		<path d="M76.176,471.594H76.09c-2.201,0-3.95,1.788-3.95,3.997c0,2.209,1.827,3.997,4.036,3.997c2.202,0,3.996-1.788,3.996-3.997
			C80.172,473.382,78.378,471.594,76.176,471.594z"/>
	</g>
</g>
<g>
	<g>
		<path d="M108.149,471.594h-0.086c-2.201,0-3.95,1.788-3.95,3.997c0,2.209,1.827,3.997,4.036,3.997
			c2.201,0,3.996-1.788,3.996-3.997C112.146,473.382,110.35,471.594,108.149,471.594z"/>
	</g>
</g>
<g>
	<g>
		<path d="M140.121,471.594h-0.086c-2.201,0-3.949,1.788-3.949,3.997c0,2.209,1.826,3.997,4.035,3.997
			c2.201,0,3.997-1.788,3.997-3.997C144.118,473.382,142.323,471.594,140.121,471.594z"/>
	</g>
</g>
<g>
	<g>
		<path d="M172.094,471.594h-0.086c-2.201,0-3.949,1.788-3.949,3.997c0,2.209,1.826,3.997,4.035,3.997
			c2.202,0,3.997-1.788,3.997-3.997C176.09,473.382,174.294,471.594,172.094,471.594z"/>
	</g>
</g>
<g>
	<g>
		<path d="M204.066,471.594h-0.086c-2.201,0-3.95,1.788-3.95,3.997c0,2.209,1.827,3.997,4.036,3.997
			c2.201,0,3.996-1.788,3.996-3.997C208.063,473.382,206.268,471.594,204.066,471.594z"/>
	</g>
</g>
<g>
	<g>
		<path d="M236.039,471.594h-0.086c-2.201,0-3.95,1.788-3.95,3.997c0,2.209,1.827,3.997,4.036,3.997
			c2.201,0,3.996-1.788,3.996-3.997C240.035,473.382,238.24,471.594,236.039,471.594z"/>
	</g>
</g>
<g>
	<g>
		<path d="M268.011,471.594h-0.086c-2.201,0-3.95,1.788-3.95,3.997c0,2.209,1.827,3.997,4.036,3.997
			c2.202,0,3.996-1.788,3.996-3.997C272.008,473.382,270.212,471.594,268.011,471.594z"/>
	</g>
</g>
<g>
	<g>
		<path d="M299.984,471.594h-0.086c-2.201,0-3.949,1.788-3.949,3.997c0,2.209,1.826,3.997,4.035,3.997
			c2.201,0,3.997-1.788,3.997-3.997C303.981,473.382,302.185,471.594,299.984,471.594z"/>
	</g>
</g>
<g>
	<g>
		<path d="M331.956,471.594h-0.086c-2.201,0-3.95,1.788-3.95,3.997c0,2.209,1.827,3.997,4.036,3.997
			c2.201,0,3.997-1.788,3.997-3.997C335.953,473.382,334.157,471.594,331.956,471.594z"/>
	</g>
</g>
<g>
	<g>
		<path d="M363.928,471.594h-0.086c-2.201,0-3.95,1.788-3.95,3.997c0,2.209,1.827,3.997,4.036,3.997
			c2.202,0,3.996-1.788,3.996-3.997C367.924,473.382,366.129,471.594,363.928,471.594z"/>
	</g>
</g>
<g>
	<g>
		<path d="M395.901,471.594h-0.085c-2.202,0-3.95,1.788-3.95,3.997c0,2.209,1.826,3.997,4.035,3.997
			c2.202,0,3.997-1.788,3.997-3.997C399.898,473.382,398.102,471.594,395.901,471.594z"/>
	</g>
</g>
<g>
	<g>
		<path d="M427.873,471.594h-0.086c-2.201,0-3.949,1.788-3.949,3.997c0,2.209,1.826,3.997,4.035,3.997
			c2.201,0,3.997-1.788,3.997-3.997C431.87,473.382,430.074,471.594,427.873,471.594z"/>
	</g>
</g>
<g>
	<g>
		<path d="M459.846,471.594h-0.086c-2.201,0-3.949,1.788-3.949,3.997c0,2.209,1.826,3.997,4.035,3.997
			c2.202,0,3.996-1.788,3.996-3.997C463.841,473.382,462.047,471.594,459.846,471.594z"/>
	</g>
</g>
<g>
	<g>
		<path d="M491.818,471.594h-0.086c-2.201,0-3.949,1.788-3.949,3.997c0,2.209,1.826,3.997,4.035,3.997
			c2.201,0,3.996-1.788,3.996-3.997C495.815,473.382,494.019,471.594,491.818,471.594z"/>
	</g>
</g>
<g>
	<g>
		<path d="M287.239,97.949C276.06,78.204,259.98,79.894,259.302,79.96c-2.17,0.262-3.708,2.217-3.474,4.395
			c0.234,2.181,2.248,3.746,4.379,3.547c0.507-0.016,11.638-0.929,20.069,13.98c0.741,1.3,2.091,2.029,3.481,2.029
			c0.67,0,1.341-0.168,1.968-0.517C287.645,102.308,288.325,99.869,287.239,97.949z"/>
	</g>
</g>
<g>
	<g>
		<path d="M319.615,75.002c-0.515-2.143-2.654-3.477-4.816-2.955c-36.242,8.697-35.094,27.411-35.024,28.203
			c0.172,2.076,1.905,3.602,3.966,3.602c0.078,0,0.156,0,0.241-0.004c2.155-0.125,3.824-2.002,3.762-4.164
			c0-0.129-0.039-12.915,28.912-19.862C318.802,79.307,320.13,77.148,319.615,75.002z"/>
	</g>
</g>
<g>
	<g>
		<path d="M399.344,162.31c-9.226-21.907-19.897-18.632-21.076-18.179c-2.068,0.776-3.254,3.126-2.482,5.19
			c0.766,2.069,2.928,3.177,4.996,2.385c1.421-0.277,6.158,1.748,11.193,13.703c0.649,1.53,2.123,2.447,3.685,2.447
			c0.515,0,1.046-0.101,1.553-0.312C399.242,166.685,400.201,164.344,399.344,162.31z"/>
	</g>
</g>
<g>
	<g>
		<path d="M423.323,138.33c-0.858-2.034-3.192-2.986-5.237-2.135c-20.459,8.614-26.016,25.747-26.243,26.473
			c-0.656,2.1,0.515,4.325,2.607,4.992c0.406,0.126,0.812,0.188,1.21,0.188c1.685,0,3.263-1.085,3.809-2.78
			c0.187-0.585,4.808-14.386,21.723-21.505C423.221,142.705,424.182,140.363,423.323,138.33z"/>
	</g>
</g>
<g>
	<g>
		<path d="M507.563,487.58H3.997c-2.21,0-3.997,1.788-3.997,3.997c0,2.209,1.787,3.996,3.997,3.996h503.565
			c2.209,0,3.996-1.787,3.996-3.996C511.558,489.368,509.771,487.58,507.563,487.58z"/>
	</g>
</g>
<g>
	<g>
		<path d="M486.409,232.972c-1.561-1.561-4.09-1.561-5.651,0l-5.168,5.168l-5.167-5.168c-1.561-1.561-4.09-1.561-5.651,0
			l-5.168,5.168l-5.167-5.168c-1.561-1.561-4.09-1.561-5.651,0l-5.168,5.168l-5.167-5.168c-1.561-1.561-4.09-1.561-5.651,0
			l-5.168,5.168l-5.167-5.168c-1.561-1.561-4.089-1.561-5.651,0l-5.167,5.168l-5.168-5.168c-1.561-1.561-4.089-1.561-5.651,0
			l-5.167,5.168l-5.168-5.168c-1.56-1.561-4.089-1.561-5.651,0l-5.167,5.168l-5.167-5.168c-1.561-1.561-4.09-1.561-5.652,0
			l-5.167,5.168l-5.167-5.168c-1.561-1.561-4.09-1.561-5.652,0l-5.167,5.168l-5.167-5.168c-1.561-1.561-4.09-1.561-5.651,0
			l-5.168,5.168l-5.167-5.168c-1.561-1.561-4.089-1.561-5.651,0l-5.168,5.168l-5.167-5.168c-1.561-1.561-4.089-1.561-5.651,0
			l-5.167,5.168l-5.168-5.168c-1.56-1.561-4.089-1.561-5.651,0l-5.167,5.168l-5.168-5.168c-1.56-1.561-4.089-1.561-5.651,0
			l-5.167,5.168l-5.168-5.168c-1.56-1.561-4.089-1.561-5.651,0l-5.167,5.168l-5.168-5.168c-1.56-1.561-4.089-1.561-5.651,0
			l-5.167,5.168l-5.168-5.168c-1.56-1.561-4.089-1.561-5.651,0l-5.167,5.168l-5.167-5.168c-1.561-1.561-4.09-1.561-5.651,0
			l-5.168,5.168l-5.167-5.168c-1.561-1.561-4.09-1.561-5.651,0l-5.168,5.168l-5.167-5.168c-1.561-1.561-4.09-1.561-5.651,0
			l-5.168,5.168l-5.167-5.168c-1.561-1.561-4.09-1.561-5.651,0l-5.168,5.168l-5.167-5.168c-1.561-1.561-4.089-1.561-5.651,0
			l-5.167,5.168l-5.168-5.168c-1.561-1.561-4.089-1.561-5.651,0l-5.167,5.168l-5.168-5.168c-1.56-1.561-4.089-1.561-5.651,0
			l-5.167,5.168l-5.168-5.168c-1.56-1.561-4.089-1.561-5.651,0l-5.167,5.168l-5.168-5.168c-1.56-1.561-4.089-1.561-5.651,0
			l-5.167,5.168l-5.167-5.168c-1.561-1.561-4.09-1.561-5.651,0l-5.168,5.168l-5.167-5.168c-1.561-1.561-4.09-1.561-5.651,0
			l-5.168,5.168l-5.167-5.168c-1.561-1.561-4.09-1.561-5.651,0l-5.168,5.168l-5.167-5.168c-1.561-1.561-4.089-1.561-5.651,0
			c-1.562,1.561-1.562,4.09,0,5.651l7.993,7.993c1.56,1.562,4.089,1.562,5.651,0l5.167-5.167l5.168,5.167
			c1.56,1.562,4.089,1.562,5.651,0l5.167-5.167l5.168,5.167c1.56,1.562,4.089,1.562,5.651,0l5.167-5.167l5.168,5.167
			c1.56,1.562,4.089,1.562,5.651,0l5.167-5.167l5.167,5.167c1.561,1.562,4.09,1.562,5.651,0l5.168-5.167l5.167,5.167
			c1.561,1.562,4.09,1.562,5.651,0l5.168-5.167l5.167,5.167c1.561,1.562,4.09,1.562,5.651,0l5.168-5.167l5.167,5.167
			c1.561,1.562,4.089,1.562,5.651,0l5.167-5.167l5.168,5.167c1.561,1.562,4.089,1.562,5.651,0l5.167-5.167l5.168,5.167
			c1.56,1.562,4.089,1.562,5.651,0l5.167-5.167l5.168,5.167c1.56,1.562,4.089,1.562,5.651,0l5.167-5.167l5.168,5.167
			c1.56,1.562,4.089,1.562,5.651,0l5.167-5.167l5.167,5.167c1.561,1.562,4.09,1.562,5.651,0l5.168-5.167l5.167,5.167
			c1.561,1.562,4.09,1.562,5.651,0l5.168-5.167l5.167,5.167c1.561,1.562,4.09,1.562,5.651,0l5.168-5.167l5.167,5.167
			c1.561,1.562,4.089,1.562,5.651,0l5.168-5.167l5.167,5.167c1.561,1.562,4.089,1.562,5.651,0l5.167-5.167l5.168,5.167
			c1.56,1.562,4.089,1.562,5.651,0l5.167-5.167l5.168,5.167c1.56,1.562,4.089,1.562,5.651,0l5.167-5.167l5.168,5.167
			c1.56,1.562,4.089,1.562,5.651,0l5.167-5.167l5.168,5.167c1.56,1.562,4.089,1.562,5.651,0l5.167-5.167l5.168,5.167
			c1.56,1.562,4.089,1.562,5.65,0l5.168-5.167l5.168,5.167c1.56,1.562,4.089,1.562,5.65,0l5.168-5.167l5.167,5.167
			c1.561,1.562,4.09,1.562,5.651,0l5.168-5.167l5.167,5.167c1.561,1.562,4.09,1.562,5.651,0l5.168-5.167l5.167,5.167
			c1.561,1.562,4.09,1.562,5.651,0l5.168-5.167l5.167,5.167c1.561,1.562,4.089,1.562,5.651,0l5.168-5.167l5.167,5.167
			c1.561,1.562,4.089,1.562,5.651,0l5.167-5.167l5.168,5.167c0.78,0.781,1.803,1.171,2.825,1.171c1.022,0,2.044-0.39,2.826-1.171
			l7.993-7.993C487.971,237.062,487.971,234.534,486.409,232.972z"/>
	</g>
</g>
<g>
	<g>
		<path d="M507.563,447.615H3.997c-2.21,0-3.997,1.787-3.997,3.996c0,2.209,1.787,3.996,3.997,3.996h503.565
			c2.209,0,3.996-1.787,3.996-3.996C511.558,449.402,509.771,447.615,507.563,447.615z"/>
	</g>
</g>
<g>
	<g>
		<path d="M263.773,351.698c-22.785,0-39.966,8.587-39.966,19.983s17.181,19.982,39.966,19.982c22.785,0,39.966-8.586,39.966-19.982
			S286.557,351.698,263.773,351.698z M263.773,383.669c-19.515,0-31.973-7.103-31.973-11.989s12.458-11.99,31.973-11.99
			c19.515,0,31.973,7.104,31.973,11.99C295.745,376.565,283.287,383.669,263.773,383.669z"/>
	</g>
</g>
<g>
	<g>
		<path d="M230.682,368.908l-15.986-16.61c-1.537-1.585-4.066-1.631-5.651-0.109c-1.591,1.529-1.638,4.066-0.108,5.651l15.985,16.61
			c0.789,0.821,1.835,1.226,2.881,1.226c0.999,0,1.998-0.374,2.77-1.117C232.166,373.03,232.213,370.493,230.682,368.908z"/>
	</g>
</g>
<g>
	<g>
		<path d="M230.628,368.855c-1.56-1.562-4.089-1.562-5.651,0l-15.985,15.986c-1.562,1.561-1.562,4.09,0,5.651
			c0.78,0.781,1.803,1.171,2.825,1.171c1.023,0,2.045-0.39,2.826-1.171l15.985-15.986
			C232.19,372.946,232.19,370.417,230.628,368.855z"/>
	</g>
</g>
<g>
	<g>
		<path d="M211.818,351.697c-2.209,0-3.996,1.788-3.996,3.997v31.972c0,2.21,1.787,3.997,3.996,3.997
			c2.209,0,3.996-1.787,3.996-3.997v-31.972C215.813,353.485,214.026,351.697,211.818,351.697z"/>
	</g>
</g>
<g>
	<g>
		<path d="M86.488,384.59c-1.694-1.389-4.208-1.186-5.628,0.516l-39.966,47.958c-1.413,1.702-1.186,4.216,0.508,5.637
			c0.749,0.616,1.655,0.921,2.56,0.921c1.139,0,2.279-0.485,3.068-1.437l39.965-47.959C88.408,388.525,88.181,386.011,86.488,384.59
			z"/>
	</g>
</g>
<g>
	<g>
		<path d="M103.879,400.717l-17.234-15.986c-1.601-1.499-4.146-1.405-5.644,0.219c-1.507,1.616-1.413,4.144,0.21,5.651
			l17.235,15.986c0.765,0.71,1.741,1.062,2.717,1.062c1.069,0,2.146-0.43,2.927-1.281
			C105.597,404.753,105.503,402.224,103.879,400.717z"/>
	</g>
</g>
<g>
	<g>
		<path d="M123.893,399.656h-6.744c-2.209,0-3.997,1.787-3.997,3.996c0,2.209,1.788,3.997,3.997,3.997h6.744
			c2.209,0,3.996-1.788,3.996-3.997C127.889,401.443,126.102,399.656,123.893,399.656z"/>
	</g>
</g>
<g>
	<g>
		<path d="M158.691,432.8l-31.973-31.973c-1.56-1.562-4.089-1.562-5.651,0c-1.561,1.561-1.561,4.089,0,5.651l31.973,31.973
			c0.78,0.78,1.803,1.171,2.825,1.171c1.023,0,2.046-0.391,2.826-1.171C160.253,436.89,160.253,434.361,158.691,432.8z"/>
	</g>
</g>
<g>
	<g>
		<path d="M119.531,433.955l-14.737-31.973c-0.922-2.006-3.319-2.873-5.301-1.959c-2.006,0.929-2.88,3.302-1.959,5.3l14.737,31.973
			c0.671,1.468,2.123,2.326,3.63,2.326c0.562,0,1.132-0.117,1.67-0.367C119.576,438.326,120.451,435.953,119.531,433.955z"/>
	</g>
</g>
<g>
	<g>
		<path d="M443.617,383.669h-63.944c-15.806,0-19.983,18.297-19.983,27.977c0,2.201,1.788,3.988,3.989,3.996h0.008
			c2.201,0,3.989-1.787,3.997-3.988c0-0.203,0.202-19.991,11.989-19.991h63.944c11.787,0,11.99,19.788,11.99,19.991
			c0.008,2.201,1.795,3.988,3.996,3.988h0.008c2.201-0.008,3.989-1.795,3.989-3.996C463.6,401.966,459.424,383.669,443.617,383.669z
			"/>
	</g>
</g>
<g>
	<g>
		<path d="M363.687,407.649c-2.209,0-3.997,1.787-3.997,3.997v23.979c0,2.209,1.788,3.997,3.997,3.997
			c2.209,0,3.997-1.788,3.997-3.997v-23.979C367.684,409.436,365.896,407.649,363.687,407.649z"/>
	</g>
</g>
<g>
	<g>
		<path d="M459.604,407.649c-2.209,0-3.996,1.787-3.996,3.997v23.979c0,2.209,1.787,3.997,3.996,3.997
			c2.209,0,3.997-1.788,3.997-3.997v-23.979C463.601,409.436,461.813,407.649,459.604,407.649z"/>
	</g>
</g>
<g>
	<g>
		<path d="M403.652,399.656c-2.209,0-3.997,1.787-3.997,3.996v15.986c0,2.209,1.788,3.997,3.997,3.997
			c2.209,0,3.996-1.788,3.996-3.997v-15.986C407.648,401.443,405.862,399.656,403.652,399.656z"/>
	</g>
</g>
<g>
	<g>
		<path d="M419.638,399.656c-2.209,0-3.997,1.787-3.997,3.996v15.986c0,2.209,1.788,3.997,3.997,3.997s3.996-1.788,3.996-3.997
			v-15.986C423.635,401.443,421.848,399.656,419.638,399.656z"/>
	</g>
</g>
<g>
	<g>
		<path d="M419.638,399.656h-15.986c-2.209,0-3.997,1.787-3.997,3.996c0,2.209,1.788,3.997,3.997,3.997h15.986
			c2.209,0,3.996-1.788,3.996-3.997C423.635,401.443,421.848,399.656,419.638,399.656z"/>
	</g>
</g>
<g>
	<g>
		<path d="M419.638,415.642h-15.986c-2.209,0-3.997,1.787-3.997,3.996c0,2.209,1.788,3.997,3.997,3.997h15.986
			c2.209,0,3.996-1.788,3.996-3.997C423.635,417.429,421.848,415.642,419.638,415.642z"/>
	</g>
</g>
<g>
	<g>
		<path d="M387.667,407.649h-23.979c-2.209,0-3.997,1.787-3.997,3.997c0,2.209,1.788,3.996,3.997,3.996h23.979
			c2.209,0,3.996-1.787,3.996-3.996C391.662,409.436,389.875,407.649,387.667,407.649z"/>
	</g>
</g>
<g>
	<g>
		<path d="M459.604,407.649h-23.979c-2.209,0-3.997,1.787-3.997,3.997c0,2.209,1.788,3.996,3.997,3.996h23.979
			c2.209,0,3.997-1.787,3.997-3.996C463.601,409.436,461.813,407.649,459.604,407.649z"/>
	</g>
</g>
<g>
	<g>
		<path d="M403.652,287.753c-11.388,0-19.983,5.151-19.983,11.989c0,6.838,8.594,11.99,19.983,11.99
			c11.389,0,19.982-5.152,19.982-11.99S415.04,287.753,403.652,287.753z M403.652,303.739c-7.736,0-11.99-2.998-11.99-3.997
			c0-0.999,4.254-3.996,11.99-3.996c7.735,0,11.989,2.997,11.989,3.996S411.387,303.739,403.652,303.739z"/>
	</g>
</g>
<g>
	<g>
		<path d="M430.457,288.924c-1.56-1.562-4.089-1.562-5.651,0l-7.993,7.993c-1.561,1.56-1.561,4.089,0,5.651
			c0.781,0.78,1.803,1.171,2.826,1.171s2.045-0.391,2.825-1.171l7.993-7.993C432.019,293.014,432.019,290.485,430.457,288.924z"/>
	</g>
</g>
<g>
	<g>
		<path d="M430.457,304.91l-7.993-7.993c-1.561-1.562-4.089-1.562-5.651,0c-1.561,1.56-1.561,4.089,0,5.651l7.993,7.993
			c0.78,0.78,1.804,1.171,2.825,1.171c1.023,0,2.045-0.39,2.826-1.171C432.019,309,432.019,306.471,430.457,304.91z"/>
	</g>
</g>
<g>
	<g>
		<path d="M87.924,311.733c-3.271,0-31.972,0.335-31.972,11.989c0,11.654,28.701,11.989,31.972,11.989s31.973-0.335,31.973-11.989
			C119.897,312.068,91.195,311.733,87.924,311.733z M87.924,327.718c-12.544,0-20.607-2.342-23.3-3.997
			c2.693-1.655,10.756-3.997,23.3-3.997s20.608,2.342,23.301,3.997C108.531,325.376,100.469,327.718,87.924,327.718z"/>
	</g>
</g>
<g>
	<g>
		<path d="M62.774,320.897c-1.561-1.562-4.09-1.562-5.651,0l-7.993,7.992c-1.562,1.561-1.562,4.09,0,5.652
			c0.78,0.78,1.803,1.17,2.825,1.17c1.022,0,2.045-0.39,2.826-1.17l7.993-7.994C64.336,324.987,64.336,322.458,62.774,320.897z"/>
	</g>
</g>
<g>
	<g>
		<path d="M62.774,320.896l-7.993-7.994c-1.561-1.561-4.09-1.561-5.651,0c-1.562,1.561-1.562,4.09,0,5.652l7.993,7.992
			c0.78,0.781,1.803,1.172,2.825,1.172c1.022,0,2.045-0.39,2.826-1.172C64.336,324.986,64.336,322.457,62.774,320.896z"/>
	</g>
</g>
<g>
	<g>
		<path d="M299.742,311.733c-6.612,0-11.99,5.378-11.99,11.989s5.378,11.989,11.99,11.989c6.611,0,11.989-5.378,11.989-11.989
			S306.354,311.733,299.742,311.733z M299.742,327.718c-2.201,0-3.997-1.796-3.997-3.997c0-2.201,1.796-3.997,3.997-3.997
			s3.996,1.796,3.996,3.997C303.739,325.922,301.944,327.718,299.742,327.718z"/>
	</g>
</g>
<g>
	<g>
		<path d="M91.905,55.952c-15.424,0-27.976,12.552-27.976,27.976s12.552,27.976,27.976,27.976c15.424,0,27.976-12.552,27.976-27.976
			S107.329,55.952,91.905,55.952z M91.905,103.911c-11.021,0-19.982-8.964-19.982-19.982s8.961-19.983,19.982-19.983
			c11.021,0,19.982,8.964,19.982,19.983C111.888,94.946,102.927,103.911,91.905,103.911z"/>
	</g>
</g>
<g>
	<g>
		<path d="M91.905,15.987c-2.209,0-3.997,1.787-3.997,3.996v23.979c0,2.209,1.788,3.997,3.997,3.997
			c2.209,0,3.996-1.787,3.996-3.997V19.983C95.901,17.774,94.115,15.987,91.905,15.987z"/>
	</g>
</g>
<g>
	<g>
		<path d="M91.905,119.897c-2.209,0-3.997,1.788-3.997,3.997v23.979c0,2.209,1.788,3.997,3.997,3.997
			c2.209,0,3.996-1.788,3.996-3.997v-23.979C95.901,121.685,94.115,119.897,91.905,119.897z"/>
	</g>
</g>
<g>
	<g>
		<path d="M75.38,47.318L63.391,26.555c-1.093-1.92-3.544-2.56-5.456-1.463c-1.912,1.105-2.568,3.548-1.46,5.46l11.99,20.763
			c0.733,1.285,2.084,1.999,3.458,1.999c0.678,0,1.365-0.172,1.998-0.536C75.833,51.673,76.49,49.231,75.38,47.318z"/>
	</g>
</g>
<g>
	<g>
		<path d="M127.336,137.305l-11.99-20.764c-1.101-1.92-3.552-2.572-5.456-1.464c-1.912,1.104-2.568,3.547-1.46,5.46l11.99,20.763
			c0.733,1.285,2.084,1.999,3.458,1.999c0.678,0,1.365-0.172,1.998-0.534C127.789,141.66,128.444,139.217,127.336,137.305z"/>
	</g>
</g>
<g>
	<g>
		<path d="M59.293,60.483l-20.764-11.99c-1.904-1.093-4.355-0.449-5.456,1.464c-1.108,1.912-0.453,4.356,1.46,5.46l20.763,11.99
			c0.633,0.363,1.319,0.535,1.998,0.535c1.374,0,2.724-0.714,3.458-1.999C61.86,64.031,61.206,61.587,59.293,60.483z"/>
	</g>
</g>
<g>
	<g>
		<path d="M149.277,112.438l-20.763-11.99c-1.905-1.085-4.356-0.452-5.457,1.464c-1.108,1.912-0.452,4.356,1.46,5.46l20.764,11.99
			c0.632,0.363,1.319,0.535,1.998,0.535c1.374,0,2.725-0.714,3.458-1.999C151.845,115.985,151.19,113.542,149.277,112.438z"/>
	</g>
</g>
<g>
	<g>
		<path d="M51.939,79.932H27.961c-2.209,0-3.996,1.788-3.996,3.997s1.787,3.996,3.996,3.996h23.979c2.209,0,3.997-1.787,3.997-3.996
			S54.148,79.932,51.939,79.932z"/>
	</g>
</g>
<g>
	<g>
		<path d="M155.849,79.932H131.87c-2.209,0-3.997,1.788-3.997,3.997s1.788,3.996,3.997,3.996h23.979
			c2.209,0,3.997-1.787,3.997-3.996S158.058,79.932,155.849,79.932z"/>
	</g>
</g>
<g>
	<g>
		<path d="M60.753,101.913c-1.101-1.92-3.551-2.565-5.456-1.464l-20.763,11.99c-1.913,1.105-2.568,3.547-1.46,5.46
			c0.733,1.284,2.084,1.998,3.458,1.998c0.679,0,1.366-0.172,1.998-0.534l20.764-11.99C61.206,106.268,61.86,103.825,60.753,101.913
			z"/>
	</g>
</g>
<g>
	<g>
		<path d="M150.753,49.958c-1.101-1.909-3.536-2.568-5.456-1.464l-20.779,11.99c-1.912,1.104-2.568,3.547-1.46,5.46
			c0.734,1.28,2.077,1.998,3.458,1.998c0.68,0,1.367-0.172,1.999-0.534l20.778-11.99C151.206,54.313,151.86,51.87,150.753,49.958z"
			/>
	</g>
</g>
<g>
	<g>
		<path d="M73.922,115.076c-1.921-1.104-4.363-0.448-5.464,1.464l-11.975,20.764c-1.1,1.912-0.444,4.359,1.468,5.46
			c0.632,0.363,1.319,0.535,1.998,0.535c1.382,0,2.725-0.718,3.466-2l11.974-20.763C76.49,118.624,75.833,116.177,73.922,115.076z"
			/>
	</g>
</g>
<g>
	<g>
		<path d="M125.891,25.096c-1.889-1.1-4.348-0.457-5.456,1.456L108.43,47.315c-1.108,1.913-0.452,4.356,1.46,5.46
			c0.624,0.367,1.319,0.539,1.998,0.539c1.374,0,2.717-0.714,3.458-1.994l12.006-20.764C128.459,28.644,127.803,26.2,125.891,25.096
			z"/>
	</g>
</g>
<g>
	<g>
		<path d="M22.808,232.972c-1.561-1.561-4.089-1.561-5.651,0l-7.993,8.001c-1.562,1.561-1.562,4.094,0,5.651
			c0.78,0.781,1.803,1.171,2.825,1.171c1.023,0,2.046-0.39,2.826-1.171l7.993-8.001C24.37,237.062,24.37,234.53,22.808,232.972z"/>
	</g>
</g>
<g>
	<g>
		<path d="M14.815,240.973l-7.993-8.001c-1.561-1.561-4.089-1.561-5.651,0c-1.562,1.557-1.562,4.09,0,5.651l7.993,8.001
			c0.78,0.781,1.803,1.171,2.825,1.171c1.023,0,2.046-0.39,2.826-1.171C16.378,245.067,16.378,242.535,14.815,240.973z"/>
	</g>
</g>
<g>
	<g>
		<path d="M494.403,240.965l-7.993-7.993c-1.561-1.561-4.09-1.561-5.651,0c-1.562,1.561-1.562,4.09,0,5.651l7.992,7.993
			c0.781,0.781,1.804,1.171,2.826,1.171c1.022,0,2.045-0.39,2.826-1.171C495.964,245.055,495.964,242.527,494.403,240.965z"/>
	</g>
</g>
<g>
	<g>
		<path d="M502.394,232.98c-1.56-1.561-4.089-1.561-5.65,0l-7.994,7.985c-1.561,1.557-1.561,4.09,0,5.651
			c0.781,0.781,1.804,1.171,2.826,1.171c1.022,0,2.045-0.39,2.826-1.171l7.992-7.985
			C503.956,237.074,503.956,234.542,502.394,232.98z"/>
	</g>
</g>
<g>
	<g>
		<path d="M510.388,240.965l-7.994-7.985c-1.56-1.561-4.089-1.561-5.65,0c-1.562,1.561-1.562,4.094,0,5.651l7.992,7.985
			c0.781,0.781,1.804,1.171,2.826,1.171c1.023,0,2.045-0.39,2.826-1.171C511.949,245.055,511.949,242.523,510.388,240.965z"/>
	</g>
</g>
<g>
</g>
<g>
</g>
<g>
</g>
<g>
</g>
<g>
</g>
<g>
</g>
<g>
</g>
<g>
</g>
<g>
</g>
<g>
</g>
<g>
</g>
<g>
</g>
<g>
</g>
<g>
</g>
<g>
</g>
</svg>
