<?xml version="1.0" encoding="iso-8859-1"?>
<!-- Generator: Adobe Illustrator 19.0.0, SVG Export Plug-In . SVG Version: 6.00 Build 0)  -->
<svg version="1.1" id="Capa_1" xmlns="http://www.w3.org/2000/svg" xmlns:xlink="http://www.w3.org/1999/xlink" x="0px" y="0px"
	 viewBox="0 0 496 496" style="enable-background:new 0 0 496 496;" xml:space="preserve">
<g>
	<g>
		<path d="M249.712,165.472L192,146.232V64h16V0H80v64h16v82.232l-57.712,19.232C15.392,173.104,0,194.456,0,218.6V456
			c0,22.056,17.944,40,40,40h208c22.056,0,40-17.944,40-40V218.6C288,194.456,272.608,173.104,249.712,165.472z M96,16h96v32H96V16z
			 M272,456c0,13.232-10.768,24-24,24H40c-13.232,0-24-10.768-24-24V218.6c0-17.248,10.992-32.496,27.352-37.952L112,157.768V96h32
			V80h-32V64h64v16h-16v16h16v61.768l68.648,22.88C261.008,186.104,272,201.352,272,218.6V456z"/>
	</g>
</g>
<g>
	<g>
		<path d="M81.176,184.912l-32.768,10.92C38.592,199.104,32,208.248,32,218.592V248h16v-29.408c0-3.448,2.192-6.496,5.472-7.584
			l32.768-10.92L81.176,184.912z"/>
	</g>
</g>
<g>
	<g>
		<rect x="95.581" y="177.748" transform="matrix(0.9486 -0.3164 0.3164 0.9486 -53.4281 42.4535)" width="16.864" height="16"/>
	</g>
</g>
<g>
	<g>
		<path d="M232,264H56c-13.232,0-24,10.768-24,24v112c0,13.232,10.768,24,24,24h176c13.232,0,24-10.768,24-24V288
			C256,274.768,245.232,264,232,264z M240,400c0,4.408-3.584,8-8,8H56c-4.416,0-8-3.592-8-8V288c0-4.408,3.584-8,8-8h176
			c4.416,0,8,3.592,8,8V400z"/>
	</g>
</g>
<g>
	<g>
		<path d="M304,256v200c0,22.056,17.944,40,40,40h112c22.056,0,40-17.944,40-40V256H304z M480,456c0,13.232-10.768,24-24,24H344
			c-13.232,0-24-10.768-24-24v-32h160V456z M480,408H320V304h160V408z M480,288H320v-16h160V288z"/>
	</g>
</g>
<g>
	<g>
		<rect x="336" y="376" width="96" height="16"/>
	</g>
</g>
<g>
	<g>
		<rect x="448" y="376" width="16" height="16"/>
	</g>
</g>
<g>
</g>
<g>
</g>
<g>
</g>
<g>
</g>
<g>
</g>
<g>
</g>
<g>
</g>
<g>
</g>
<g>
</g>
<g>
</g>
<g>
</g>
<g>
</g>
<g>
</g>
<g>
</g>
<g>
</g>
</svg>
